<?xml version="1.0" encoding="UTF-8"?>
<svg id="Capa_1" data-name="Capa 1" xmlns="http://www.w3.org/2000/svg" version="1.1" viewBox="0 0 1080 490">
  <defs>
    <style>
      .cls-1 {
        fill: #854a91;
        stroke-width: 0px;
      }
    </style>
  </defs>
  <path class="cls-1" d="M4.6,69.5c-1.7-2.1-2.9-3.7-3.3-5l-1.3-3.7v-4.1c.4-.4.8-2.1.8-2.5v.4c0-.4,0-.8.4-.8l.8-1.7,2.5-2.9h.4l1.7-1.2h.4c.3-.3.5-.4.8-.4v-.4h.4c.4,0,1.7-.4,3.3-.8h4.1c.4,0,.8,0,1.2.4h.4c.4,1.7,1.2,2.9,1.7,3.3.8.4,1.2.8,1.7,1.7.4.4.8.4.8.8.4.4.8.8.8,1.2.4.4.8.8,1.2,2.1v.4c.4,0,.4,1.7.8,1.7v5c0,.8-.4,1.7-.8,2.9,0,.4,0,.8-.4.8,0,.4-.4,1.2-.8,1.7l-.4.4-1.2,1.2h-.4l-1.7,1.2h-.4c-.4.4-1.2.4-2.1.4s-.6,0-.8.4c-.8,0-1.7,0-2.1-.4-1.7,0-2.9,0-4.1-.4h-.8c-.4-.4-.8-.4-1.2-.4l-.4-.4h-.4l-1.7-.8h0ZM28.6,363.7c-1.2.4-2.9.8-5.4.8-6.6-.8-10.4-3.7-11.2-8.7-.4-3.3-.8-5.8-.8-7.9-.4-7.9-.4-20.3-.4-36.5h-1.2l1.7-11.2,2.5-21.1c-.4-7.5-.4-18.2,0-31.9.4-14.1.8-24,.8-29.4s0-7.5-.4-9.5c-.4-2.1-3.3-14.1-3.7-19.1v-19.1c-.8-23.6-3.3-44.3-7.5-63-1.2-3.7,0-7,3.7-10.8,2.1-2.9,9.1-2.9,10.8,0,4.6,5.4,7.9,10.4,10.8,14.9.4.4.4,2.5.4,5.4l-1.2,7.5c.8,19.5,2.1,37.7,4.1,53.9.4,2.1.4,16.2.4,41.8s-.4,7.9-.4,9.9c2.1,21.1,2.1,41.8.4,63-.4,2.5-.4,10.4-.4,23.2s.4,4.6,1.2,5c-.4,6.6-.4,24-.8,31.1l-3.3,11.6h-.1Z"/>
  <path class="cls-1" d="M92.4,376.1c9.5-3.7,17.4-7.9,23.6-12,5.4-4.1,9.1-8.3,10.8-12.4,1.2-2.9,3.7-6.2,7.5-9.9l6.2-7c10.4-12.8,11.6-26.1,4.1-40.6,0-.4-.4-.8-.8-2.1-4.1-8.7-8.7-16.2-13.7-22.8-8.3-10.8-14.1-20.3-17.8-28.2-1.7-3.7-4.1-7-7-9.9-6.2-5.4-12.8-14.5-19.1-27.3l-21.5-43.1c-3.3-7.5-5.4-17-6.6-28.2v-14.5c0-13.7.4-22.8,1.7-26.9,1.2-4.1,5-11.6,11.2-22.8,4.6-7.9,9.9-13.7,15.7-17.8,5.4-3.3,8.7-5.8,9.9-7,3.7-4.1,11.6-9.1,24.4-14.5,1.2-.4,2.9-.4,4.6.8,5,3.3,5.4,12.4.8,14.5-13.3,6.2-26.1,17-38.9,31.5-5.4,5.4-8.7,11.6-10.8,18.6-2.5,10.4-3.7,15.7-3.7,16.6-1.2,3.7-1.2,6.6-.4,9.5,3.7,16.6,6.6,28.2,9.5,34.4,14.5,32.7,31.5,62.6,51.8,89.5,12,16.2,21.1,31.5,27.3,45.6,6.2,13.7,8.3,26.1,7,37.3-2.5,18.6-9.1,31.9-20.3,39.4-2.5,1.2-4.1,2.9-5.4,5-6.2,7.9-17.4,15.7-33.1,23.2-6.6,3.3-11.6,5.8-15.3,7-.8.4-3.7.8-9.1,1.7-7.5.4-12-3.3-13.3-11.2,0-1.7.8-5.8.8-7.9,8.7-3.7,15.3-6.6,19.9-8.3h0v-.2Z"/>
  <path class="cls-1" d="M249.4,123.8c2.1-7.9,3.3-13.7,3.7-17.8,0-4.1,1.7-8.7,4.6-13.7,6.2-9.9,8.7-22,7.9-36.5-.4-4.6.4-10.4,2.5-16.6l9.9-29.8c1.2-3.3,3.7-5,7.5-5h9.5c4.1.4,7,2.1,8.3,4.6,13.3,20.3,21.1,33.6,24,38.9,5.8,9.9,12.8,31.9,17.4,42.3,2.1,4.6,3.7,7.9,5.8,10.4,1.7,2.1,3.7,3.3,6.2,3.3,4.1-.4,7.9-1.2,11.6-2.5,3.7-.8,8.7-.4,14.1,1.7,2.1.4,3.3,1.2,4.1,2.5,2.9,2.1,3.7,5,3.3,8.3-.4,2.9-1.7,4.6-4.1,5.8-6.2,2.1-10.4,3.7-13.3,5-1.7.4-5.4,2.5-6.6,2.9-4.6,2.5-6.2,5.8-5.4,9.9,2.5,8.7,5.8,22.8,9.9,43.1,4.6,19.9,8.3,35.2,11.6,45.6.4,2.1,2.5,12.4,5.4,31.1,1.7,13.7,4.1,24,7,30.2.4.8,1.7,4.6,2.9,11.6,3.7,23.6,10.8,55.1,21.1,94.1,5.4,21.1,10.4,38.5,15.7,53,.8,2.1,2.9,11.6,6.6,28.2,1.2,4.6-2.9,8.7-7.9,9.9-6.2,1.2-12.8-2.1-14.5-6.6-1.2-2.1-4.6-9.5-5.8-12.4-2.1-4.6-4.1-13.7-3.3-19.5,0-2.1-.8-5.8-2.9-11.6-2.1-6.2-4.6-15.7-7.5-29-2.5-12.8-5-22.8-7.5-29.4-1.2-3.7-1.2-12.8-2.5-16.6-3.7-12-7.9-29.8-12-52.6l-8.3-43.9-6.6-29.4c-5.4-25.3-10.4-46-15.7-64.2-1.7-5-3.7-16.2-5-21.1-2.1-7-6.6-9.5-12.8-8.3-5.8,1.7-14.1,3.3-25.3,5.4l-19.5,2.9c-5,1.2-8.7,2.1-11.6,3.3-4.6,2.1-7.5,4.6-8.7,7.5-4.6,10.8-7,18.2-7.5,22.8-.4,16.2-3.3,29.4-7.9,39.8-1.2,5.4-2.9,13.7-5.8,25.3-5.4,22.8-8.7,38.5-9.1,55.1,0,13.7-2.9,25.3-8.7,34.4-3.3,5-5.4,11.2-5.8,18.2-.4,2.1-1.7,8.3-4.6,18.6-1.7,6.2-2.5,10.8-2.9,14.1,0,6.6-1.7,15.3-4.6,26.1-2.1,6.6-2.9,19.5-3.7,26.1-1.2,7-9.9,10.4-17,6.6-2.5-2.1-3.7-3.7-3.7-5.8,1.7-14.5,3.3-24.9,5-31.1,7.5-28.6,11.6-46.8,12-53.9.4-1.7,1.7-5.8,1.7-7,4.1-17,10.4-49.3,19.1-96.9,3.7-19.1,6.6-30.7,7.9-35.2,3.7-13.3,6.2-28.2,8.3-44.8,1.2-11.2-.4-13.7-10.4-12.4-3.3.4-11.2,2.1-14.5,2.1-13.7,2.1-25.3,1.2-35.6-2.1-1.7-.4-5.4-3.3-5.8-3.7-1.7-1.2-.8-5,.8-6.2,2.9-1.2,4.1-2.1,4.6-2.1,20.7-2.1,33.6-3.7,38.1-5.4h9.5c6.6.4,14.1-.8,22.8-3.7l3.7-13.7h0l.3-.2ZM319.8,84.4l-8.3-20.3c-3.7-9.9-7.5-17-10.8-21.5-2.1-2.9-6.2-2.5-7.9.4l-1.7,1.7-7.5,32.7c2.1,5.4,1.7,10.8-2.1,15.7-2.1,3.3-3.3,8.3-4.6,15.3-.8,6.6-2.1,11.2-3.7,14.1-1.2,2.1,2.9,5.8,5.8,5.4,14.5-1.7,28.2-5.4,41.4-11.2,2.1-1.2,7-4.6,8.3-5-1.2-7-4.1-16.2-9.1-27.3h.2Z"/>
  <path class="cls-1" d="M821.2,317.3c-4.1-.4-7.9.8-11.2,2.9-2.1,2.1-6.6,3.7-13.3,5.4-2.9,1.2-5.4,1.2-7,.4-5.8-3.7-17.4-2.9-23.6-2.9-10.4,0-30.2,1.7-40.6,2.5-3.7,0-6.6-.4-9.5-1.2l-25.7-7-11.2-3.7c-.8-.4-4.6-1.2-11.2-2.5-6.6-1.7-11.6-3.3-14.5-4.6-5.4-2.9-17.8-10.8-20.7-12.4-12-6.6-19.9-14.5-22.8-23.6-.8-2.5-1.7-3.7-2.1-4.1-4.6-2.9-7-8.3-8.3-11.6-1.2-3.7-2.9-11.2-3.3-14.1-.4-1.7-.8-9.1-.8-22.4l17-22.8c10.4-12.4,21.1-21.5,33.1-26.9,8.7-4.1,15.7-7.9,21.1-11.6,9.5-5.4,23.2-10.8,40.2-16.2,22.8-6.2,36.5-9.9,41.4-12,11.2-4.6,21.1-6.6,30.7-5.8,3.3.4,12-2.9,14.1-2.9s3.3-.4,7-1.2c7-1.7,7.5-1.2,14.5,0,11.6-.4,20.3.4,26.5,2.9,3.7,5,5.4,8.3,2.1,11.2l-4.6,3.3c-2.1,1.7-11.2,4.1-13.3,5.4h-.4c-.3.3-.5.4-.8.4-5.8-.8-12-.4-18.6.8l-54.3,11.2c-2.9.4-10.8,2.9-14.1,3.3-5,1.2-21.1,4.6-27.8,6.6l-11.6,5c-6.6,2.9-12,4.6-15.7,5.4-1.2,0-2.5.4-4.1,1.7-8.3,6.2-17,11.6-26.5,16.6-4.1,2.1-12.4,8.7-24.9,19.1-2.9,2.1-5.4,5-8.3,8.7-9.1,12.8-8.7,25.3,1.2,37.3,7.9,9.5,14.9,15.7,22,18.6,10.8,5.4,20.3,9.1,29,12,23.2,8.3,56.3,13.3,99.4,14.9,17.4.8,36-1.2,55.5-6.2.4,0,3.3,1.2,4.6,1.2v.4c0,.8-.4,2.9-1.2,6.2,0,2.5-.4,4.6-1.7,6.2l-2.9,5.8c0,.3,0,.5-.4.8-1.2,0-2.1,0-2.5-.4h0Z"/>
  <path class="cls-1" d="M1079.7,335.5c1.2,16.6-.8,21.1-10.4,21.5-16.2.4-26.5.4-31.9,0-6.6-1.2-14.1-.8-22.4.4-5,.8-12.4,1.7-22.4,2.5-19.9,1.7-34.8,3.3-48.5,7.9-2.1.4-4.1.8-5.4.4-14.5-.8-29.8,0-45.2,2.1-5.4.4-11.6-7-13.7-17.4-1.7-5.4-.4-9.5,3.7-12.8,9.5-7.5,20.7-20.3,34-38.1,31.9-45.2,51.8-73.8,58.8-85.4l16.6-25.3c4.1-6.2,12-20.3,16.6-24.9l6.2-10.4,7-12c5-8.7,13.3-24.4,17-36.5-2.9-2.9-4.1-4.1-4.6-4.1-12.8-1.7-25.7-2.9-39.4-3.7-12-.4-20.7-2.1-25.7-4.1-1.7-1.2-7-.8-7.5-.8-7.9,0-25.7-.8-33.6-.8h-31.9c-6.6,0-11.6-.4-14.9-1.2-1.2-.4-4.1-2.1-8.7-5.4-2.9-2.1-4.1-5-3.7-9.5,2.1-6.2,4.6-9.5,6.6-9.9,5.8-.4,14.5-.4,26.1-.4l54.7,2.5c4.1.4,7.9,1.2,10.8,2.5,7.5,3.3,14.1,4.6,20.3,3.3,4.6-.4,14.1,2.1,17,2.1,10.4.8,25.7,1.2,46.8,1.2s9.5,3.7,11.6,15.7c.4,1.2,0,4.6-.4,9.1,0,.4-.8,2.1-2.1,5-19.5,40.2-32.7,65.9-39.4,77.9l-11.2,15.7c-10.8,13.7-18.6,25.3-23.6,35.2-5.4,10.8-11.2,19.9-17.8,27.3-2.1,2.1-5.8,7.5-11.2,16.2l-18.2,27.8-14.5,22c-.4.4-.4,2.5,0,5.8l1.2,1.2c.4.4,1.2.8,1.7.8,11.6-.4,18.6-1.2,20.7-1.7,19.5-3.7,38.1-5.4,55.9-4.6,21.1.4,37.3-.8,48.9-3.7,9.9-2.5,18.2-3.3,24.4-2.5,0,1.2,1.2,7,1.2,9.1h.5Z"/>
</svg>