<?xml version="1.0" encoding="UTF-8"?>
<svg id="Capa_1" data-name="Capa 1" xmlns="http://www.w3.org/2000/svg" version="1.1" viewBox="0 0 400.63 500">
  <defs>
    <style>
      .cls-1 {
        fill: #333459;
        stroke-width: 0px;
      }
    </style>
  </defs>
  <path class="cls-1" d="M162.61,298.72c-3.05,0-5.3,0-7.54,0-45.56,0-91.13-.17-136.69.13-8.89.06-16.25-5.95-17.81-13-1.73-7.83.53-14.3,6.66-19.29,15.88-12.94,31.85-25.76,47.77-38.65,37.75-30.57,75.47-61.18,113.23-91.73,26.99-21.84,54.06-43.59,81.05-65.44,26.68-21.59,53.29-43.29,80-64.84,3.16-2.55,6.65-4.79,10.26-6.68,6.45-3.38,13.58-1.93,18.6,3.35,4.85,5.09,6.16,12.07,2.5,18.28-9.66,16.44-19.57,32.74-29.53,49-25.1,41-50.27,81.94-75.4,122.92-.5.82-.86,1.72-1.73,3.46,2.85.28,5.21.7,7.57.71,39.5.04,79,0,118.5.04,11.13,0,18.71,5.43,20.27,14.74,1.26,7.52-1.43,13.72-7.23,18.68-9.63,8.24-19.14,16.63-28.76,24.88-47.85,41.03-95.74,82.01-143.58,123.05-42.95,36.85-85.8,73.83-128.86,110.56-4.78,4.08-10.39,7.48-16.12,10.08-6.33,2.87-12.51.62-16.94-4.42-4.67-5.32-5.37-12.14-2.03-18.12,9.94-17.83,20.26-35.46,30.85-52.91,24.33-40.11,48.92-80.07,73.36-120.11.64-1.05.83-2.39,1.59-4.7ZM337.4,25.4c-.47-.37-.94-.73-1.41-1.1-1.14.57-2.43.96-3.4,1.75-10.18,8.2-20.3,16.46-30.44,24.7-31.18,25.33-62.34,50.69-93.57,75.96-27.3,22.08-54.72,44.02-82.04,66.08-33.08,26.71-66.12,53.46-99.12,80.27-1.96,1.59-3.38,3.86-5.05,5.81,2.52.51,5.04,1.46,7.56,1.46,52.4.09,104.8.05,157.21.12,2.01,0,4.01.85,6.01,1.31-.63,1.92-.93,4.04-1.95,5.73-14.56,24.17-29.15,48.33-43.87,72.41-22.73,37.21-45.57,74.35-68.32,111.55-.66,1.09-.71,2.55-1.04,3.84.5.32,1,.63,1.5.95,100.05-85.91,200.11-171.82,300.16-257.73-.2-.65-.4-1.3-.61-1.96h-158.39c39.55-64.76,78.15-127.96,116.75-191.16Z"/>
  <path class="cls-1" d="M337.4,25.4c-38.6,63.2-77.2,126.4-116.75,191.16h158.39c.2.65.4,1.3.61,1.96-100.05,85.91-200.11,171.82-300.16,257.73-.5-.32-1-.63-1.5-.95.33-1.29.38-2.75,1.04-3.84,22.74-37.2,45.58-74.35,68.32-111.55,14.71-24.08,29.31-48.24,43.87-72.41,1.02-1.69,1.32-3.81,1.95-5.73-2-.46-4.01-1.31-6.01-1.31-52.4-.07-104.8-.04-157.21-.12-2.52,0-5.04-.95-7.56-1.46,1.67-1.95,3.09-4.22,5.05-5.81,33-26.81,66.04-53.56,99.12-80.27,27.32-22.06,54.74-44,82.04-66.08,31.23-25.27,62.38-50.63,93.57-75.96,10.14-8.24,20.26-16.5,30.44-24.7.97-.78,2.26-1.17,3.4-1.75.47.37.94.73,1.41,1.1Z"/>
</svg>