<?xml version="1.0" encoding="utf-8"?>
<!-- Generator: Adobe Illustrator 24.0.1, SVG Export Plug-In . SVG Version: 6.00 Build 0)  -->
<svg version="1.1" id="Capa_2_1_" xmlns="http://www.w3.org/2000/svg" xmlns:xlink="http://www.w3.org/1999/xlink" x="0px" y="0px"
	 viewBox="0 0 250 250" style="enable-background:new 0 0 250 250;" xml:space="preserve">
<style type="text/css">
	.st0{fill-rule:evenodd;clip-rule:evenodd;fill:#1dc775;}
	.st1{fill:#FFFFFF;}
	.st2{fill:#595757;}
	.st3{fill:#E3ED0C;}
	.st4{fill-rule:evenodd;clip-rule:evenodd;fill:#AE7F57;}
</style>
<g>
	<path class="st0" d="M223.3,167.5h-30.2V206c0,1,0.8,1.8,1.8,1.8h26.8c0.9,0,1.6-0.7,1.6-1.5L223.3,167.5L223.3,167.5z"/>
	<path class="st0" d="M193.1,179.5c-3.2,0-7.6,3-7.6,6.8c0,3.8,4.4,6.8,7.6,6.8c0,2.2,0,4.5,0,6.8c-6.4,0-13.4-6.1-13.4-13.6
		c0-7.4,7-13.5,13.4-13.5C193.1,175,193.1,172.8,193.1,179.5L193.1,179.5z"/>
	<g>
		<path class="st1" d="M208.5,181.7c-1.1-1-2.6-2.4-4.2-2.5c-2.6-0.2-4.5,0.8-5.6,2.8c-4.1,7.4,7.1,10.3,9.8,15.4
			c2.7-5.1,13.9-8.1,9.8-15.4c-1.1-1.9-3-3-5.6-2.8C211.1,179.4,209.6,180.7,208.5,181.7z"/>
	</g>
</g>
<g>
	<g>
		<path d="M90.6,118.1c0,0-25.1,62.8-21.5,77.2v1.8c0,0-7.2,0-9-25.1s0-35.9,0-35.9s1.8-7.2-5.4-9c-7.2-1.8-7.2,14.4-7.2,23.3
			s1.8,26.9,5.4,37.7c3.6,10.8,10.8,21.6,21.5,26.9s5.4,10.8,10.8,10.8c5.4,0,3.6,0,3.6,0s-1.8,5.4,5.4,5.4s10.8,1.8,12.6-1.8
			c0,0,1.8-3.6,3.6-1.8c1.8,1.8,23.3,1.8,23.3,0s1.8-1.8,1.8,0s19.8,0,19.8-3.6s-3.6-1.8,0-7.2c3.6-5.4,9-10.8,9-23.3
			c0,0,0-5.4,3.6-1.8s10.8,1.8,10.8,1.8s0.8,5.4,4.4,5.4s5.3-2.1,6.4-3.6c1.5-2,1.8-9,1.8-9s3.6-7.2-3.6-9s-9,1.8-10.8,3.6
			c-1.8,1.8-16.2-5.4-18-12.6c-1.8-7.2-7.2-43.1-14.4-55.7c0,0,19.8-9,9-32.3c0,0,1.8-10.8,1.8-21.5s-7.2-18-7.2-23.3
			c0,0-19.8,16.2-19.8,23.3h-19.8c0,0-14.4-19.8-26.9-23.3c0,0-3.6,32.3-1.8,37.7c1.8,5.4,0,7.2,0,7.2s-3.6,7.2-3.6,12.6
			s3.6,14.4,7.2,18S90.6,118.1,90.6,118.1z"/>
	</g>
	<path class="st2" d="M89.7,229.9c0.2-3.4,3.6-5.9,3.6-7.7c0-1.8-3.9-44.9-3.9-44.9l-2.1-0.3c0,0,3.9,43.1,3.9,44.9
		c0,0.9-0.9,1.7-1.8,2.8c0,0-0.6,1-0.7,1.5s-0.1,1.2-0.1,1.4s0.3,1.2,0.3,1.2s0.4,0.8,0.5,0.8L89.7,229.9z"/>
	<path class="st2" d="M108.1,227.1"/>
	<path class="st2" d="M110.3,227.6c0,0-0.5-0.6-1.1-0.5c-0.6,0-1.1,0.5-1.1,0.5v-0.6v-48.5h2.7v48.5v0.8
		C110.8,227.9,110.6,227.8,110.3,227.6z"/>
	<path class="st2" d="M135.4,227c-1.4-3.8-1.1-15.5-1.1-15.5h-2.4c0,0,0,14.4,1.8,16.2c0,0-0.1-0.9,0.5-1.3c0,0,0.2-0.2,0.5-0.1
		c0.3,0.1,0.3,0.2,0.4,0.2S135.4,227,135.4,227z"/>
	<path class="st2" d="M185.9,198.3c-1.3,0.5-2.3,0.5-2.3,0.5c-4.4,0.7-5-5.3-5-5.3c-10.8,3.6-26.9-12.6-26.9-12.6l0.2-1.1
		c0,0,16.2,16.2,26.9,12.6c0,0,1,9.7,9.5,3.1l1.7-1.4c0,0-0.4,1.2-1.1,1.9c0,0-0.9,1-1.1,1.1s-0.9,0.7-1,0.8
		C186.6,197.9,185.9,198.3,185.9,198.3z"/>
	<g>
		<circle class="st3" cx="97.8" cy="93" r="16.2"/>
		<g>
			<path d="M97.5,109.1c10.8-16.2,0-32.3,0-32.3l0.3,0c0,0-10.8,16.2,0,32.3L97.5,109.1z"/>
		</g>
	</g>
	<g>
		<circle class="st3" cx="133.7" cy="93" r="16.2"/>
		<g>
			<path d="M133.4,109.1c10.8-16.2,0-32.3,0-32.3l0.3,0c0,0-10.8,16.2,0,32.3L133.4,109.1z"/>
		</g>
	</g>
	<g>
		<polyline points="165.1,101 152.5,101 152.5,102.8 165.1,102.8 		"/>
		<polyline points="165.2,105.2 152.6,104.1 152.5,105.9 165,107 		"/>
		<polyline points="161.7,110 150.1,105.2 149.4,106.9 161,111.7 		"/>
		<polyline points="159.8,114.2 148.6,108.3 147.8,109.9 158.9,115.8 		"/>
		<polyline points="157.3,117.1 147.3,109.6 146.2,111 156.3,118.6 		"/>
		<polyline points="69.9,104.6 82.5,104.6 82.5,106.4 69.9,106.4 		"/>
		<polyline points="69.9,108.8 82.4,107.7 82.6,109.5 70.1,110.6 		"/>
		<polyline points="73.3,113.6 84.9,108.8 85.6,110.5 74,115.3 		"/>
		<polyline points="75.3,117.8 86.4,111.9 87.2,113.5 76.1,119.4 		"/>
		<polyline points="77.7,120.7 87.8,113.2 88.8,114.6 78.8,122.2 		"/>
	</g>
	<path class="st2" d="M109,231.7"/>
</g>
<!-- <path class="st4" d="M208.3,128c-0.8,5.6-0.6,7.6,1.2,10.6c1.2,2.1,3,4.1,4.2,6.2c4,6.8,0.8,11.6-3.5,16.9c0.6-1.7,1.4-4.2,1.9-6.7
	C214.2,143.4,199.2,142.9,208.3,128L208.3,128z"/> -->
<!-- <path class="st4" d="M203.2,138.4c-6.4,11.1,6,9.4,1.8,23.7C214,150.6,201.6,151.2,203.2,138.4z"/> -->
</svg>
