<?xml version="1.0" encoding="utf-8"?>
<!-- Generator: Adobe Illustrator 24.0.1, SVG Export Plug-In . SVG Version: 6.00 Build 0)  -->
<svg version="1.1" id="Capa_1" xmlns="http://www.w3.org/2000/svg" xmlns:xlink="http://www.w3.org/1999/xlink" x="0px" y="0px"
	 viewBox="0 0 48 41" style="enable-background:new 0 0 48 41;" xml:space="preserve">
<style type="text/css">
	.st0{fill-rule:evenodd;clip-rule:evenodd;fill:#37251B;}
	.st1{fill:#FFFFFF;}
</style>
<g>
	<path class="st0" d="M42.54,3.14H16.76v32.85c0,0.82,0.68,1.5,1.54,1.5h22.88c0.72,0,1.36-0.59,1.36-1.32V3.14z"/>
	<path class="st0" d="M16.76,13.42c-2.72,0-6.48,2.58-6.48,5.75c0,3.22,3.76,5.8,6.48,5.8c0,1.91,0,3.85,0,5.76
		c-5.48,0-11.46-5.17-11.46-11.55c0-6.34,5.98-11.51,11.46-11.51C16.76,9.57,16.76,7.67,16.76,13.42L16.76,13.42z"/>
	<g>
		<path class="st1" d="M29.86,15.29c-0.96-0.88-2.26-2.03-3.58-2.16c-2.23-0.22-3.86,0.72-4.77,2.35
			c-3.51,6.29,6.08,8.82,8.35,13.17c2.27-4.35,11.86-6.88,8.35-13.17c-0.91-1.63-2.54-2.57-4.77-2.35
			C32.11,13.26,30.82,14.41,29.86,15.29z"/>
	</g>
</g>
</svg>
